<svg xmlns="http://www.w3.org/2000/svg">
  <defs>
    <symbol id="checkmark" viewBox="0 0 16 15">
      <rect width="16" height="15" rx="2" fill="#2196F3"/>
      <path d="M3.95703 7.75166L3.88825 7.68604L3.81923 7.75141L2.93123 8.59258L2.85486 8.66492L2.93097 8.73753L6.42671 12.0724L6.49574 12.1382L6.56476 12.0724L14.069 4.91352L14.1449 4.84116L14.069 4.76881L13.1873 3.92764L13.1183 3.86183L13.0493 3.92761L6.49577 10.1735L3.95703 7.75166Z" fill="white" stroke="white" stroke-width="0.2"/>
    </symbol>
    <symbol id="check-box" viewBox="0 0 16 15">
      <path d="M14.2222 1.66667V13.3333H1.77778V1.66667H14.2222ZM14.2222 0H1.77778C0.8 0 0 0.75 0 1.66667V13.3333C0 14.25 0.8 15 1.77778 15H14.2222C15.2 15 16 14.25 16 13.3333V1.66667C16 0.75 15.2 0 14.2222 0Z"/>
    </symbol>
    <symbol id="email-ico" viewBox="0 0 18 18">
      <path d="M15 3H3C2.175 3 1.5075 3.675 1.5075 4.5L1.5 13.5C1.5 14.325 2.175 15 3 15H15C15.825 15 16.5 14.325 16.5 13.5V4.5C16.5 3.675 15.825 3 15 3ZM14.7 6.1875L9.3975 9.5025C9.1575 9.6525 8.8425 9.6525 8.6025 9.5025L3.3 6.1875C3.1125 6.0675 3 5.865 3 5.6475C3 5.145 3.5475 4.845 3.975 5.1075L9 8.25L14.025 5.1075C14.4525 4.845 15 5.145 15 5.6475C15 5.865 14.8875 6.0675 14.7 6.1875Z"/>
    </symbol>
    <symbol id="phone-ico" viewBox="0 0 18 18">
      <path d="M13.996 11.1226L12.1579 10.9127C11.7164 10.862 11.2822 11.014 10.971 11.3252L9.63945 12.6568C7.59144 11.6147 5.91251 9.94296 4.87041 7.8877L6.20922 6.54888C6.5204 6.2377 6.67237 5.80349 6.62171 5.36205L6.41185 3.53836C6.325 2.80745 5.70988 2.25745 4.97173 2.25745H3.71976C2.902 2.25745 2.22175 2.93771 2.2724 3.75547C2.65595 9.93572 7.59868 14.8712 13.7717 15.2548C14.5894 15.3054 15.2697 14.6252 15.2697 13.8074V12.5555C15.2769 11.8245 14.7269 11.2094 13.996 11.1226Z"/>
    </symbol>
    <symbol id="person-ico" viewBox="0 0 18 18">
      <path d="M9 9C10.6575 9 12 7.6575 12 6C12 4.3425 10.6575 3 9 3C7.3425 3 6 4.3425 6 6C6 7.6575 7.3425 9 9 9ZM9 10.5C6.9975 10.5 3 11.505 3 13.5V14.25C3 14.6625 3.3375 15 3.75 15H14.25C14.6625 15 15 14.6625 15 14.25V13.5C15 11.505 11.0025 10.5 9 10.5Z"/>
    </symbol>
    <symbol id="send-btn" viewBox="0 0 24 24">
      <path d="M24 0 0 13.5l7.66994 2.8407L19.5 5.25002 10.5017 17.3896l.0073.0027-.009-.0027v6.6105l4.3013-5.0181 5.4488 2.0181L24 0Z"/>
    </symbol>
    <symbol id="close-btn" viewBox="0 0 11 11">
      <path d="M11 1.10786L9.89214 0L5.5 4.39214L1.10786 0L0 1.10786L4.39214 5.5L0 9.89214L1.10786 11L5.5 6.60786L9.89214 11L11 9.89214L6.60786 5.5L11 1.10786Z"/>
    </symbol>
    <symbol id="icon-astronaut" viewBox="0 0 32 32">
      <path fill="#2196f3" style="fill:var(--color1, #2196f3)" d="M31.974 4.524c-.063-.193-.229-.333-.43-.363l-1.91-.278-.855-1.731c-.179-.365-.777-.365-.956 0l-.855 1.731-1.91.278c-.201.029-.367.17-.431.363-.062.193-.011.405.135.547l1.383 1.348-.326 1.903c-.034.2.048.402.212.522.166.121.382.135.562.04l1.709-.899 1.709.899c.078.041.164.061.249.061.11 0 .221-.034.314-.102.164-.119.246-.322.212-.522l-.326-1.903 1.383-1.348c.145-.142.197-.354.135-.547zm-2.463 1.327c-.125.122-.183.299-.153.472l.191 1.114-1-.526c-.078-.041-.163-.061-.249-.061s-.17.02-.249.061l-1.001.526.191-1.114c.03-.173-.028-.349-.153-.472l-.81-.789 1.119-.163c.174-.025.324-.134.402-.292l.5-1.013.5 1.013c.078.157.228.267.402.292l1.119.163-.809.789zm-3.377 14.671h-1.067v1.067h1.067v-1.067zm0 2.134h-1.067v1.067h1.067v-1.067zm1.066-1.067h-1.067v1.067H27.2v-1.067zm-2.133 0H24v1.067h1.067v-1.067zm-2.667 4.8h-1.067v1.067H22.4v-1.067zm0 2.133h-1.067v1.067H22.4v-1.067zm1.067-1.066H22.4v1.067h1.067v-1.067zm-2.134 0h-1.067v1.067h1.067v-1.067zM16 24.256h-1.067v1.067H16v-1.067zm0 2.133h-1.067v1.067H16v-1.067zm1.067-1.067H16v1.067h1.067v-1.067zm-2.134 0h-1.067v1.067h1.067v-1.067zm-9.066-19.2H4.8v1.067h1.067V6.122zm0 2.133H4.8v1.067h1.067V8.255z"/>
      <path fill="#2196f3" style="fill:var(--color1, #2196f3)" d="M6.933 7.189H5.866v1.067h1.067V7.189zm-2.133 0H3.733v1.067H4.8V7.189z"/>
      <path fill="#212121" style="fill:var(--color2, #212121)" d="M24.715 14.159c-.287-.388-.709-.637-1.188-.705-.481-.068-.956.058-1.34.352l-1.252.96-1.898 1.417-1.358-.541c2.421-1.086 4.114-3.508 4.114-6.32 0-3.823-3.123-6.933-6.961-6.933s-6.961 3.11-6.961 6.933c0 1.386.414 2.674 1.12 3.758l-2.764-.024h-.005c-.009 0-.015.004-.023.005-.053.002-.105.013-.155.031-.013.005-.026.008-.038.013-.006.003-.013.003-.019.006l-3.233 1.596c-.001 0-.001 0-.001.001l-1.893.911c-.021.009-.042.021-.063.035-.755.502-1.012 1.489-.598 2.295.22.429.595.745 1.056.889.178.055.359.083.539.083.29 0 .577-.071.839-.211l1.388-.738 2.264-1.169 1.357-.008L2.2 22.211c-.001.001-.001.001-.002.001L.859 23.545c-.316.315-.49.732-.49 1.178s.174.863.49 1.179c.325.323.752.485 1.179.485s.854-.162 1.18-.485l1.314-1.309 1.741-1.3.901.897-1.762 1.754c0 .001-.001.001-.002.001l-1.339 1.333c-.316.315-.49.732-.49 1.178s.174.863.49 1.179c.325.323.753.485 1.18.485s.855-.162 1.18-.485l3.482-3.467c.001-.001.001-.001.001-.002l1.01-1-.004-.004c.006-.006.015-.009.022-.015l5.166-5.658 3.471.494c.025.004.05.005.075.005.065 0 .127-.015.187-.038.018-.006.033-.015.05-.023.019-.01.039-.015.058-.027l3.213-2.133c.012-.008.018-.021.029-.029.013-.01.029-.014.041-.026l1.271-1.191c.662-.62.753-1.635.212-2.362zM2.13 17.77c-.173.093-.37.111-.558.052-.187-.058-.338-.186-.427-.358-.161-.314-.068-.695.214-.902l1.314-.632.449 1.312-.992.528zm3.498-1.828-1.548.8-.439-1.283 2.027-1.001-.04 1.484zm15.099-6.62c0 .918-.219 1.785-.599 2.559l-4.181-1.899c-.044-.573-.341-1.075-.788-1.388l1.464-4.86c2.378.756 4.105 2.974 4.105 5.588zm-11.789 0c0-3.235 2.644-5.867 5.894-5.867.253 0 .5.021.745.052l-1.432 4.754c-.019-.001-.037-.006-.057-.006-1.033 0-1.873.837-1.873 1.867s.84 1.867 1.873 1.867c.694 0 1.294-.383 1.618-.945l3.862 1.755c-1.075 1.446-2.795 2.39-4.737 2.39-3.25 0-5.894-2.632-5.894-5.867zm5.956.8c0 .441-.362.8-.806.8s-.806-.359-.806-.8c0-.441.362-.8.806-.8s.806.359.806.8zM2.465 25.146c-.236.234-.619.234-.854.001-.114-.114-.176-.263-.176-.423s.062-.309.176-.421l.962-.958.851.848-.959.955zm3.214 3.734c-.236.234-.619.235-.855.001-.114-.114-.176-.263-.176-.423s.062-.309.176-.421l.963-.959.852.848-.96.955zm3.481-3.469c-.001 0-.001 0-.002.001l-1.765 1.76-.852-.848 1.763-1.755s.001-.001.002-.001c.04-.04.065-.088.09-.135.007-.014.02-.026.026-.04.017-.041.019-.085.026-.129.003-.025.014-.047.014-.073 0-.036-.013-.07-.02-.106-.006-.032-.006-.065-.019-.095-.02-.05-.055-.094-.091-.138-.01-.012-.014-.027-.025-.038h-.001c-.001 0-.001-.002-.001-.002l-1.607-1.6c-.017-.017-.039-.024-.058-.038-.028-.022-.055-.042-.087-.058-.03-.015-.061-.024-.093-.033-.034-.01-.067-.017-.103-.02-.033-.002-.063.001-.095.005-.036.004-.069.009-.104.02-.034.011-.063.027-.094.045-.02.011-.042.015-.061.029L4.23 23.486l-.901-.897 2.399-2.386 4.361 4.289-.928.919zm6.819-7.017c-.015-.002-.03.004-.045.003-.039-.002-.076.001-.115.007-.03.005-.059.011-.088.021-.034.012-.065.028-.097.047-.03.018-.057.037-.083.061-.013.011-.028.017-.04.029l-4.698 5.146-4.328-4.257 2.833-2.818c.209-.208.21-.546.002-.755-.105-.105-.243-.157-.381-.156v-.001l-2.219.013.028-1.607 3.104.027c1.265 1.294 3.029 2.101 4.981 2.101.437 0 .864-.045 1.279-.123.04.032.079.065.13.085l2.41.96.331 1.644-3.003-.427zm4.041.178-.313-1.558 1.446-1.08.947 1.257-2.08 1.381zm3.754-2.831-.838.785-.931-1.236.831-.637c.155-.119.351-.168.543-.143.193.027.364.128.48.284.217.292.18.699-.085.947z"/>
      <path fill="#212121" style="fill:var(--color2, #212121)" d="m13.602 18.544-2.143-2.133c-.207-.207-.545-.207-.753 0l-2.142 2.133c-.1.101-.157.236-.157.378s.056.278.157.378l2.142 2.133c.104.103.241.155.377.155s.273-.052.376-.155l2.143-2.133c.1-.1.157-.236.157-.378s-.057-.278-.157-.378zm-2.519 1.759-1.387-1.381 1.387-1.381 1.387 1.381-1.387 1.381zm6.081-15.232-.258 1.036c.071.018 1.738.452 1.738 2.149h1.067c0-2.017-1.666-2.965-2.547-3.185zm2.547 4.251h-1.067v1.067h1.067V9.322z"/>
    </symbol>
    <symbol id="icon-clock" viewBox="0 0 32 32">
      <path fill="#212121" style="fill:var(--color2, #212121)" d="M31.297 15.301C31.295 6.849 24.442-.002 15.989 0S.686 6.855.688 15.308c.001 6.658 4.307 12.551 10.649 14.576.061.019.124.029.187.029.121 0 .239-.032.342-.094.135-.08.236-.207.283-.356l3.865-12.25c1.057-.005 1.909-.866 1.903-1.923s-.866-1.909-1.923-1.903c-.284.001-.565.067-.82.191l-5.106-5.107c-.253-.245-.657-.238-.902.016-.239.247-.239.639 0 .886l5.103 5.109c-.392.799-.168 1.764.536 2.309l-3.683 11.673C3.844 25.783.118 17.71 2.799 10.432S13.553-.572 20.831 2.109s11.004 10.754 8.323 18.032c-1.31 3.556-4.001 6.431-7.462 7.973l-.398-1.874c-.073-.344-.411-.565-.756-.492-.109.023-.209.074-.292.148l-3.837 3.426c-.263.234-.287.637-.052.9.076.085.174.149.283.184l4.899 1.563c.335.108.694-.077.802-.412.034-.106.04-.219.017-.328l-.391-1.839c5.664-2.388 9.342-7.942 9.329-14.089zm-15.305-.637c.352 0 .638.286.638.638s-.286.638-.638.638c-.352 0-.638-.285-.638-.638s.285-.638.638-.638zm2.101 14.864 2.184-1.948.603 2.84-2.787-.892z"/>
      <path fill="#2196f3" style="fill:var(--color1, #2196f3)" d="M15.354 3.185V4.46c0 .352.285.638.638.638s.638-.285.638-.638V3.185c0-.352-.286-.638-.638-.638s-.638.286-.638.638zM3.876 14.664c-.352 0-.638.286-.638.638s.285.638.638.638h1.275c.352 0 .638-.285.638-.638s-.285-.638-.638-.638H3.876zm24.232 1.275c.352 0 .638-.285.638-.638s-.285-.638-.638-.638h-1.275c-.352 0-.638.286-.638.638s.286.638.638.638h1.275z"/>
    </symbol>
    <symbol id="icon-company1-logo" viewBox="0 0 28 32">
      <path d="m4.085 0 4.771 4.517L0 4.512v21.915h23.149v-8.379l4.766 4.512V.001H4.085zm18.854 17.517L9.411 4.71h13.528v12.807zm-4.2 5.704H3.663V8.482h1.066v13.741h14.01v.998zM7.223 29.344l-.557 1.147-.557-1.147h-.467l.813 1.529v.891h.422v-.891l.811-1.529h-.465zm.7 2.42.196-.563h.938l.198.563h.439l-.916-2.42h-.377l-.914 2.42h.437zm.665-1.906.351 1.004h-.701l.351-1.004zm2.217.946c-.061.093-.091.196-.091.307 0 .204.072.37.214.497.144.126.336.189.575.189s.445-.065.618-.194l.136.161h.469l-.356-.421c.14-.191.209-.435.209-.733h-.351c0 .163-.034.311-.101.444l-.467-.552.165-.12c.116-.084.2-.168.251-.253.051-.085.076-.178.076-.279 0-.153-.056-.281-.17-.384-.112-.104-.256-.156-.432-.156-.195 0-.35.055-.465.166-.115.11-.173.259-.173.449 0 .078.018.158.055.241.038.083.104.184.198.303-.18.129-.3.24-.361.334zm1.092.535c-.119.091-.246.136-.382.136-.121 0-.217-.035-.289-.105s-.108-.161-.108-.273c0-.13.067-.245.2-.346l.052-.037.529.623zm-.434-1.072c-.114-.141-.171-.258-.171-.351 0-.081.023-.148.07-.201s.109-.08.188-.08c.073 0 .133.023.181.068.048.044.072.098.072.161 0 .095-.034.173-.103.234l-.052.042-.184.126zm3.94 1.314c.166-.145.262-.347.286-.605h-.419c-.022.173-.075.296-.158.371s-.207.111-.372.111c-.181 0-.318-.069-.412-.206-.093-.137-.14-.337-.14-.598v-.214c.002-.258.052-.454.15-.587.099-.134.239-.201.422-.201.157 0 .277.039.357.116.082.076.133.202.153.376h.419c-.027-.265-.121-.47-.284-.615s-.378-.218-.645-.218c-.198 0-.373.047-.525.141-.151.094-.267.228-.347.402s-.121.375-.121.603v.226c.003.223.045.418.125.587s.193.299.339.391c.147.091.317.136.51.136.276 0 .497-.072.663-.216zm2.472-.339c.082-.18.123-.388.123-.625v-.135c-.001-.236-.043-.443-.126-.62-.083-.178-.201-.315-.354-.409-.152-.095-.326-.143-.524-.143s-.372.048-.525.145c-.152.095-.27.233-.354.414-.083.181-.125.389-.125.625v.136c.001.232.043.436.126.613.084.177.203.314.356.411.154.095.329.143.525.143.198 0 .373-.048.525-.143.153-.096.27-.234.352-.412zm-.451-1.368c.102.143.153.349.153.617v.126c0 .273-.05.48-.151.622-.1.142-.243.213-.429.213-.184 0-.328-.073-.432-.218-.103-.145-.155-.351-.155-.617v-.14c.002-.26.054-.462.156-.603.103-.143.245-.214.427-.214.186 0 .33.072.43.214z"/>
    </symbol>
    <symbol id="icon-company2-logo" viewBox="0 0 25 32">
      <path d="M10.531 1.806h-.084c-.129-.008-.258-.011-.388-.014h-.28c-.244 0-.494.006-.741.019a.52304.52304 0 0 0-.056 0c-2.243.127-4.44.688-6.471 1.651l-.266.128v13.625l.623-.211c.546-.188 1.129-.357 1.731-.513 1.629-.418 3.301-.64 4.982-.662v1.79c-.223.002-.439.008-.655.019h-.051c-1.294.071-2.577.268-3.833.588-1.59.398-3.124.996-4.566 1.779V2.53c1.497-.873 3.11-1.529 4.79-1.948C6.741.201 8.258.006 9.781 0h.263c.314.008.621.022.909.044.759.053 1.511.173 2.249.358v1.762c-.717-.167-1.445-.277-2.179-.329-.015-.001-.03-.003-.045-.004-.152-.013-.304-.026-.446-.026zm3.102 1.801c.391.03.796.044 1.205.044 1.601-.006 3.195-.21 4.747-.609 1.589-.4 3.123-.998 4.564-1.781v17.163c-1.498.873-3.111 1.529-4.792 1.948-1.475.379-2.992.574-4.515.581-1.154.009-2.304-.126-3.425-.404V3.274c.265.061.537.117.814.164.455.077.934.133 1.401.167zm8.734.133-.623.21c-.573.192-1.15.365-1.731.518-1.691.434-3.428.657-5.173.663-.406 0-.78-.011-1.141-.034l-.497-.033v14.017l.427.038c.395.034.803.052 1.214.052 1.374-.006 2.743-.183 4.074-.527 1.096-.275 2.162-.658 3.184-1.144l.266-.128V3.742zM1.684 25.977c-.09-.093-.197-.166-.317-.214s-.247-.071-.376-.066c-.137-.002-.273.024-.4.075-.117.046-.222.116-.311.205s-.156.196-.201.313c-.049.123-.073.254-.072.387v2.335c-.006.165.026.328.092.479.055.12.135.226.233.313.093.079.203.135.321.166.114.032.231.048.349.049.13.001.259-.027.377-.081.117-.051.222-.124.311-.216.087-.091.156-.197.204-.313.05-.118.075-.244.075-.372v-.261h-.61v.208c.002.071-.01.142-.036.208-.02.05-.05.095-.089.131-.038.031-.081.053-.128.067-.041.014-.084.021-.128.022-.054.006-.11-.002-.16-.024s-.094-.057-.126-.101a.54824.54824 0 0 1-.081-.313v-2.177c-.004-.121.022-.241.075-.349.032-.049.077-.089.129-.114s.112-.034.17-.027c.053-.002.105.009.152.032s.089.057.12.099c.068.09.104.2.101.313v.202h.604v-.238c.001-.14-.024-.278-.075-.408-.045-.122-.114-.234-.204-.329zm3.626-.027c-.195-.164-.44-.255-.694-.257-.124 0-.248.023-.364.066-.119.042-.228.107-.322.191-.101.091-.182.202-.237.327-.061.143-.092.297-.089.452v2.239c-.004.158.026.314.089.459.055.12.136.227.237.313.093.087.203.154.322.197.117.043.24.065.364.066s.248-.023.364-.066c.121-.044.233-.111.33-.197.097-.087.176-.194.23-.313.063-.145.093-.301.089-.459v-2.239c.003-.155-.027-.31-.089-.452-.054-.123-.133-.235-.23-.327zm-.285 3.019c.005.06-.003.12-.024.176s-.054.107-.097.148c-.081.068-.182.105-.287.105s-.207-.037-.287-.105c-.043-.041-.076-.092-.097-.148s-.029-.116-.024-.176V26.73c-.005-.06.003-.12.024-.176s.054-.107.097-.148c.081-.068.182-.105.287-.105s.207.037.287.105c.043.041.076.092.097.148s.029.116.024.176v2.239zm5.047 1V25.73h-.587l-.771 2.244h-.011l-.777-2.244h-.581v4.239h.606V27.39h.011l.593 1.823h.302l.598-1.823h.011v2.579h.606zm3.441-3.942c-.093-.105-.211-.184-.343-.232-.142-.046-.29-.068-.439-.066h-.9v4.239h.604v-1.656h.311c.188.009.376-.031.545-.116.137-.076.252-.188.332-.324.07-.113.117-.238.139-.369.024-.16.035-.321.033-.482.006-.204-.014-.407-.059-.606-.04-.147-.117-.281-.223-.39zm-.312 1.292c-.003.077-.022.152-.056.221-.035.065-.089.117-.156.149-.089.04-.187.058-.285.053h-.275v-1.441h.311c.094-.005.187.014.272.053.062.036.112.091.142.157.033.074.051.155.053.236v.282c0 .099.006.2 0 .291h-.006zm3.173-1.589h-.495l-.934 4.239h.604l.177-.911h.823l.177.911h.604l-.957-4.239zm-.557 2.751.297-1.537h.011l.296 1.537h-.604zm4.46-.197h-.011l-.912-2.554h-.581v4.239h.604V27.42h.012l.923 2.549h.568V25.73h-.604v2.554zm3.691-2.554-.486 1.685h-.012l-.486-1.685h-.64l.83 2.447v1.792h.604v-1.792l.83-2.447h-.64zM0 31.166h.291v.817h.198v-.817h.29v-.167H.001v.167zm2.447-.168-.381.984h.21l.081-.224h.392l.084.224h.215l-.391-.984h-.21zm-.031.595.134-.365.134.365h-.268zm2.45.027h.227v.127c-.066.053-.149.082-.234.083-.04.002-.079-.005-.116-.021s-.068-.041-.093-.072c-.052-.075-.078-.165-.073-.257 0-.219.095-.329.283-.329.05-.005.099.008.14.037s.07.071.082.12l.195-.038c-.042-.192-.181-.289-.417-.289-.127-.003-.25.042-.344.127-.05.049-.088.108-.112.174s-.034.135-.029.205c-.006.135.039.267.126.369.048.05.107.088.171.113s.134.035.203.031c.154.004.304-.052.417-.157v-.388h-.427v.166zm2.471-.622h-.199v.984h.69v-.167h-.49v-.817zm2.089 0h-.199v.984h.199v-.984zm2.043.658-.403-.657h-.193v.984h.185v-.643l.395.643h.198v-.984h-.182v.657zm1.846-.107h.49v-.167h-.49v-.216h.528v-.167h-.727v.984h.747v-.167h-.548v-.266zm4.477-.162h-.388v-.388h-.198v.984h.198v-.43h.388v.43h.198v-.984h-.198v.388zm1.857.162h.492v-.167h-.492v-.216h.529v-.167h-.727v.984h.746v-.167h-.548v-.266zm2.519 0c.171-.027.258-.117.258-.274.005-.042-.001-.084-.018-.123s-.044-.072-.078-.096a.55325.55325 0 0 0-.288-.058h-.417v.984h.198v-.412h.039c.042-.003.084.005.123.022.029.018.053.043.07.072l.215.313h.237l-.12-.192a.68515.68515 0 0 0-.218-.236zm-.199-.136h-.146v-.247h.156c.068-.005.136.002.201.023.014.013.026.029.033.046s.011.037.01.056c-.001.019-.006.038-.015.055s-.022.032-.037.043c-.065.02-.133.028-.201.023zm2.098.136h.49v-.167h-.49v-.216h.529v-.167h-.729v.984h.747v-.167h-.548v-.266z"/>
    </symbol>
    <symbol id="icon-company3-logo" viewBox="0 0 34 32">
      <path d="M5.643 31.315c.012 0 .024.003.035.007s.021.011.029.018l.166.159c-.129.129-.288.231-.467.302-.21.076-.435.113-.663.108-.213.004-.426-.031-.623-.101-.178-.065-.338-.162-.469-.285-.134-.128-.237-.278-.303-.44a1.472 1.472 0 0 1-.106-.565c-.003-.193.036-.386.114-.567.073-.164.182-.314.322-.44.142-.124.312-.222.499-.287.205-.069.422-.103.642-.101.204-.004.407.027.596.092.165.062.316.148.447.255l-.139.17c-.01.012-.022.022-.035.031-.016.01-.036.014-.056.013-.022-.001-.042-.008-.06-.018l-.075-.045-.104-.058c-.045-.021-.091-.04-.139-.056-.062-.019-.125-.034-.189-.045-.082-.013-.164-.019-.247-.018-.158-.002-.315.024-.461.076-.136.048-.26.121-.361.213-.104.098-.183.214-.235.339-.058.144-.087.295-.085.448-.002.155.026.309.085.455.051.125.129.239.231.338.095.092.213.163.345.209.136.049.281.073.428.072.085.001.17-.004.253-.014.137-.015.268-.056.384-.121.058-.033.113-.071.164-.112.021-.018.049-.028.079-.029zm4.798-.798c.003.192-.035.382-.112.561-.068.163-.174.311-.313.436s-.306.222-.491.286c-.407.135-.856.135-1.263 0-.184-.065-.35-.163-.488-.287-.138-.127-.246-.276-.316-.44-.15-.364-.15-.761 0-1.125.071-.164.178-.314.316-.442.139-.12.305-.214.488-.276.406-.137.857-.137 1.263 0 .185.065.351.163.49.287.137.125.243.273.314.435.077.181.115.372.112.565zm-.436 0c.003-.153-.023-.306-.079-.451-.047-.125-.122-.239-.222-.338-.097-.093-.217-.166-.351-.213-.296-.099-.623-.099-.918 0-.134.047-.254.12-.351.213-.101.097-.178.212-.224.338-.106.294-.106.609 0 .903.047.125.123.24.224.338.098.092.217.164.351.211.296.096.622.096.918 0 .134-.047.254-.119.351-.211.1-.098.175-.213.222-.338.056-.145.082-.298.079-.451zm3.71.473.044.101c.017-.036.031-.069.048-.101.016-.034.034-.067.054-.099l1.062-1.677c.021-.029.039-.047.06-.052.028-.007.058-.011.087-.009h.314v2.727h-.372v-2.09a.73708.73708 0 0 1 0-.094l-1.068 1.7c-.014.025-.035.047-.063.062s-.059.023-.091.023h-.06c-.032 0-.064-.007-.091-.022s-.049-.037-.062-.062l-1.099-1.711v2.189h-.359v-2.722h.314c.03-.002.059.002.087.009.026.011.046.03.058.052l1.084 1.678c.021.031.039.064.054.097zm3.995-.135v1.021h-.415v-2.723h.926c.175-.003.349.017.517.059.134.033.259.091.366.17.092.074.163.165.208.267.049.111.073.229.071.348.002.119-.024.238-.077.348-.05.104-.127.198-.224.273-.107.082-.232.143-.368.18-.162.045-.331.066-.501.063l-.503-.007zm0-.293h.503c.109.001.218-.013.322-.041.086-.025.165-.065.233-.117.062-.05.111-.112.141-.18.034-.073.051-.151.05-.229.005-.076-.009-.151-.042-.222s-.082-.134-.145-.186c-.159-.108-.358-.16-.559-.146h-.503v1.122zm5.584 1.318h-.328c-.033.001-.065-.008-.091-.025a.1704.1704 0 0 1-.054-.063l-.282-.659H21.12l-.293.659c-.011.024-.029.045-.052.061-.026.018-.06.028-.093.027h-.328l1.246-2.727h.432l1.263 2.727zm-2.057-1.013h1.172l-.494-1.11c-.038-.084-.069-.169-.093-.256l-.048.143c-.014.043-.031.083-.046.116l-.49 1.108zm3.852-1.702c.025.012.046.029.062.049l1.818 2.056v-2.117h.372v2.727h-.208c-.03.001-.059-.005-.085-.016-.026-.013-.048-.03-.067-.05l-1.816-2.054c.002.031.002.063 0 .094v2.027h-.372v-2.727h.22c.026-.001.051.004.075.013zm5.313 1.63v1.083h-.415v-1.083l-1.149-1.642h.372c.032-.002.064.007.089.023.023.018.042.038.056.061l.719 1.059c.029.045.054.087.075.126s.037.078.052.116l.054-.117c.02-.043.044-.084.071-.125l.708-1.067c.015-.021.033-.041.054-.058.025-.019.057-.028.089-.027h.376l-1.151 1.65zM13.51 24.576c.181.02.364.036.548.051 2.803-1.089 5.174-2.873 6.817-5.126s2.485-4.878 2.421-7.546l-3.089-2.684c.628 2.84.334 5.776-.849 8.479s-3.208 5.067-5.849 6.827z"/>
      <path d="m12.407 24.451.083.014c2.822-1.754 4.974-4.203 6.176-7.03s1.402-5.904.571-8.83l-4.4-3.823c1.78 3.142 2.496 6.659 2.066 10.141s-1.989 6.786-4.496 9.528zm14.921-9.345c-.747 2.931-2.563 5.574-5.177 7.537-.763.576-1.587 1.09-2.46 1.534 2.128-.544 4.085-1.504 5.718-2.809s2.9-2.917 3.703-4.714l-1.784-1.549z"/>
      <path d="m26.628 14.674-2.541-2.207c-.049 2.517-.872 4.976-2.385 7.123s-3.66 3.902-6.217 5.084h.012c.57 0 1.139-.03 1.705-.088 2.39-.848 4.502-2.196 6.147-3.926s2.771-3.785 3.278-5.985zM12.774 3.17 9.743.533c-2.709.91-5.04 2.509-6.686 4.588S.526 9.663.517 12.187c.01 2.789 1.09 5.495 3.07 7.69s4.745 3.754 7.859 4.43c2.78-2.942 4.407-6.579 4.646-10.38s-.924-7.569-3.319-10.757zM33.63 14.268c-.011-3.309-1.529-6.479-4.221-8.818s-6.342-3.658-10.15-3.668c-1.76-.002-3.504.281-5.146.832L32.67 18.737c.635-1.425.961-2.94.96-4.469z"/>
    </symbol>
    <symbol id="icon-company4-logo" viewBox="0 0 65 32">
      <path d="M10.016 9.983h-.002c-1.827 0-3.308 1.316-3.308 2.94v.002c0 1.624 1.481 2.94 3.308 2.94h.002c1.827 0 3.308-1.316 3.308-2.94v-.002c0-1.624-1.481-2.94-3.308-2.94zm24.418-.94c-.005-2.255-1.015-4.417-2.81-6.012S27.398.538 24.86.533c-2.538.004-4.972.902-6.767 2.497s-2.806 3.757-2.811 6.013v12.436s19.149-1.895 19.151-12.434v-.002zM0 25.562c.005 1.569.708 3.073 1.956 4.183s2.94 1.735 4.706 1.74c1.765-.005 3.457-.63 4.705-1.739s1.952-2.613 1.957-4.182V16.91S-.001 18.23-.001 25.562zm6.662 1.55c-.345 0-.682-.091-.969-.261s-.511-.413-.643-.696-.167-.595-.099-.896.233-.577.477-.794.555-.364.893-.424c.338-.06.689-.029 1.008.088s.591.316.783.571c.192.255.294.555.294.861.001.204-.044.406-.131.595s-.216.36-.378.505c-.162.145-.355.259-.567.338s-.439.119-.669.119v-.006zm13.466-.854h-1.286v1.328h-.67v-3.25h2.116v.542h-1.446v.839h1.286v.54zm3.218-.223c0 .32-.057.6-.17.842s-.275.427-.487.558c-.21.131-.451.196-.723.196-.269 0-.51-.065-.721-.194s-.375-.314-.491-.554c-.116-.241-.175-.518-.176-.83v-.161c0-.32.057-.601.172-.844.116-.244.279-.431.489-.56.211-.131.452-.196.723-.196s.511.065.721.196c.211.129.374.316.489.56.116.242.174.523.174.841v.145zm-.678-.147c0-.341-.061-.6-.183-.777s-.296-.266-.522-.266c-.225 0-.398.088-.52.263-.122.174-.184.43-.185.768v.158c0 .332.061.589.183.772s.298.275.527.275c.225 0 .397-.088.518-.263.121-.177.182-.434.183-.772v-.158zm2.85.846c0-.126-.045-.223-.134-.29-.089-.068-.25-.14-.482-.214-.232-.076-.416-.15-.551-.223-.369-.199-.554-.468-.554-.806 0-.176.049-.332.147-.469.1-.138.242-.246.426-.324.186-.077.394-.116.625-.116.232 0 .439.042.621.127.181.083.322.202.422.355.101.153.152.327.152.522h-.67c0-.149-.047-.264-.141-.346-.094-.083-.225-.125-.395-.125-.164 0-.291.035-.382.105-.091.068-.136.159-.136.272 0 .106.053.194.158.266.107.071.264.138.471.201.381.115.659.257.833.426s.261.381.261.634c0 .281-.106.502-.319.663-.213.159-.499.239-.859.239-.25 0-.478-.045-.683-.136-.205-.092-.362-.218-.471-.377-.107-.159-.161-.344-.161-.554h.672c0 .359.214.538.643.538.159 0 .284-.032.373-.096.089-.065.134-.156.134-.272zm3.574-1.855h-.996v2.708h-.67v-2.708h-.982v-.542h2.647v.542zm2.339 1.299h-1.286v.871h1.509v.538h-2.179v-3.25h2.174v.542h-1.504v.775h1.286v.525zm1.82.218h-.533v1.19h-.67v-3.25h1.208c.384 0 .68.086.888.257s.312.413.312.725c0 .222-.048.407-.145.556-.095.147-.24.265-.435.353l.703 1.328v.031h-.719l-.609-1.19zm-.534-.542h.54c.168 0 .298-.042.391-.127.092-.086.138-.205.138-.355 0-.153-.044-.274-.132-.362-.086-.088-.219-.132-.4-.132h-.538v.975zm4.058.587v1.145h-.67v-3.25h1.268c.244 0 .458.045.643.134.186.089.329.216.429.382.1.164.15.35.15.56 0 .318-.109.57-.328.754-.217.183-.519.275-.904.275h-.587zm0-.542h.598c.177 0 .312-.042.404-.125.094-.083.141-.202.141-.357 0-.159-.047-.288-.141-.386s-.223-.149-.388-.152h-.614v1.02zm4.237.279h-1.286v.871h1.509v.538h-2.179v-3.25h2.174v.542h-1.504v.775h1.286v.525zm3.107-1.299h-.995v2.708h-.67v-2.708h-.982v-.542h2.647v.542zm2.339 1.299h-1.286v.871h1.509v.538h-2.178v-3.25h2.174v.542h-1.504v.775h1.286v.525zm1.819.218h-.533v1.19h-.67v-3.25h1.208c.384 0 .68.086.888.257s.313.413.313.725c0 .222-.048.407-.145.556-.095.147-.24.265-.435.353l.703 1.328v.031h-.719l-.609-1.19zm-.533-.542h.54c.168 0 .298-.042.391-.127.092-.086.138-.205.138-.355 0-.153-.044-.274-.132-.362-.086-.088-.219-.132-.4-.132h-.538v.975zm3.935.88c0-.126-.045-.223-.134-.29-.089-.068-.25-.14-.482-.214-.232-.076-.416-.15-.551-.223-.369-.199-.554-.468-.554-.806 0-.176.049-.332.147-.469.1-.138.242-.246.426-.324.186-.077.394-.116.625-.116.232 0 .439.042.621.127.182.083.322.202.422.355.101.153.152.327.152.522h-.67c0-.149-.047-.264-.141-.346-.094-.083-.225-.125-.395-.125-.164 0-.291.035-.382.105-.091.068-.136.159-.136.272 0 .106.053.194.158.266.107.071.264.138.471.201.381.115.658.257.833.426s.261.381.261.634c0 .281-.106.502-.319.663-.213.159-.499.239-.859.239-.25 0-.478-.045-.683-.136-.205-.092-.362-.218-.471-.377-.107-.159-.161-.344-.161-.554h.672c0 .359.214.538.643.538.159 0 .283-.032.373-.096.089-.065.134-.156.134-.272z"/>
    </symbol>
    <symbol id="icon-company5-logo" viewBox="0 0 43 32">
      <path d="M3.239 26.373c.166.188.254.424.25.665.008.158-.022.315-.089.46s-.169.275-.298.38c-.322.223-.722.332-1.125.307H0V23.97h1.937c.382-.023.761.076 1.073.28.125.096.224.217.289.354s.095.286.086.435c.011.233-.068.461-.225.645-.15.168-.358.284-.589.329.262.044.499.172.668.36zM.92 25.737h.828c.188.013.375-.037.526-.14.062-.052.111-.116.141-.187s.043-.148.036-.225c.006-.076-.007-.153-.037-.224s-.078-.135-.138-.188c-.156-.106-.349-.156-.542-.142H.92v1.106zm1.435 1.616c.066-.053.119-.119.153-.193s.049-.155.043-.235c.005-.081-.01-.163-.045-.238s-.088-.142-.155-.195c-.162-.11-.361-.164-.562-.152H.921v1.159H1.8c.198.011.394-.041.556-.146zm4.842.832L6.12 26.538h-.405v1.647h-.927V23.97h1.754c.442-.028.879.1 1.221.358.245.229.393.53.417.85s-.078.637-.287.894c-.216.227-.512.378-.837.428l1.147 1.684H7.195zm-1.482-2.222h.758c.526 0 .789-.213.789-.638.005-.087-.009-.174-.042-.255s-.085-.156-.151-.218c-.166-.127-.38-.188-.596-.171h-.767l.009 1.283zm6.547 1.374h-1.847l-.326.848h-.972l1.696-4.168h1.05l1.689 4.168h-.972l-.319-.848zm-.247-.639-.675-1.779-.675 1.779h1.349zm6.587 1.487h-.92l-2.062-2.867v2.867h-.918V23.97h.918l2.062 2.883V23.97h.92v4.215zm5.25-1.009c-.19.318-.48.577-.832.743-.4.185-.845.276-1.293.266H20.09V23.97h1.637c.448-.011.891.078 1.293.259.352.163.642.419.832.735.189.343.288.722.288 1.106s-.099.763-.288 1.106zm-1.053-.101c.263-.28.407-.637.407-1.006s-.144-.726-.407-1.006c-.317-.254-.731-.382-1.152-.358h-.639v2.729h.639c.42.024.834-.105 1.152-.358zM12.838.522s11.873 4.104 11.621 10.043V20.61s-11.864-4.106-11.617-10.045L12.837.522zm22.199 17.737c2.242-1.413 4.836-2.288 7.544-2.545v-3.145c-3.12 1.101-5.766 3.097-7.544 5.69z"/>
      <path d="M33.69 19.206c1.835-3.384 5.017-5.995 8.891-7.296V2.849S25.672 8.695 26.03 17.153v14.302s.753-.262 1.939-.752c0-.457 0-.918.054-1.382.35-3.926 2.389-7.565 5.668-10.115z"/>
      <path d="M32.081 24.52c.089-.992.287-1.973.592-2.928-2.042 2.203-3.278 4.936-3.536 7.815-.025.272-.038.544-.045.824.96-.422 2.078-.949 3.252-1.569-.3-1.362-.388-2.756-.263-4.141zm.673.051c-.113 1.253-.042 2.514.209 3.75 4.62-2.531 9.811-6.442 9.611-11.168v-.412c-3.301.338-6.389 1.659-8.79 3.76-.562 1.302-.909 2.674-1.03 4.069z"/>
    </symbol>
    <symbol id="icon-company6-logo" viewBox="0 0 67 32">
      <path d="M33.724 15.224c-.315-.419-.466-.915-.43-1.414v-2.05c0-.628.142-1.106.428-1.433s.775-.489 1.469-.488c.652 0 1.115.139 1.389.417.299.355.444.789.411 1.226v.482h-1.167v-.488c.004-.16-.007-.319-.034-.478-.017-.108-.076-.208-.167-.284-.12-.081-.271-.121-.423-.111-.16-.01-.318.031-.444.117-.102.084-.169.193-.193.313-.033.167-.049.337-.046.507v2.488c-.018.24.033.48.15.699.058.074.139.132.233.169s.198.05.301.039c.149.011.298-.03.413-.113.095-.082.156-.188.174-.302.027-.165.039-.332.036-.498v-.505h1.167v.461c.033.456-.109.909-.403 1.289-.268.305-.725.457-1.396.457s-1.179-.163-1.466-.501zm4.859.021c-.295-.319-.442-.784-.442-1.4v-2.157c0-.609.147-1.07.442-1.383s.788-.469 1.478-.467c.686 0 1.177.156 1.471.467.295.313.444.774.444 1.383v2.157c0 .609-.15 1.076-.449 1.397s-.788.482-1.466.482c-.679 0-1.181-.163-1.478-.48zm2.022-.518c.106-.2.154-.419.14-.638v-2.641c.014-.215-.034-.43-.138-.626-.059-.075-.142-.135-.238-.172s-.203-.05-.308-.037c-.105-.013-.212 0-.308.037s-.18.096-.24.172c-.106.195-.154.41-.14.626v2.653c-.015.219.033.439.14.638.068.067.152.121.246.158s.196.056.3.056c.103 0 .206-.019.3-.056s.178-.091.246-.158v-.012zm2.775-4.826h1.256l.945 3.979.966-3.979h1.222l.123 5.743h-.904l-.097-3.992-.932 3.992h-.725l-.966-4.006-.089 4.006h-.913l.114-5.743zm5.921 0h1.957c1.127 0 1.691.544 1.691 1.631 0 1.041-.593 1.561-1.78 1.56h-.667v2.553h-1.208l.007-5.743zm1.672 2.455c.119.013.24.004.355-.028s.22-.084.309-.154c.139-.194.2-.422.174-.649.006-.175-.013-.35-.058-.521-.017-.057-.047-.111-.089-.158s-.093-.086-.153-.116c-.168-.069-.353-.101-.539-.092h-.469v1.716h.469zm3.718-2.455h1.297l1.331 5.743h-1.126l-.263-1.324h-1.157l-.271 1.324h-1.143l1.331-5.743zm1.109 3.754-.452-2.411-.452 2.411h.903zm2.595-3.754h.846l1.619 3.276V9.901h1.003v5.743h-.804l-1.628-3.42v3.42h-1.036l.002-5.743zm5.814 3.554-1.346-3.546h1.133l.821 2.277.771-2.277h1.109l-1.329 3.546v2.19h-1.16v-2.19zm-28.62 4.701v.3h-.986v2.334h-.413v-2.334h-.99v-.3h2.389zm3.09 2.634h-.319c-.032.002-.064-.007-.089-.025-.024-.015-.043-.036-.053-.06l-.285-.626h-1.367l-.285.626c-.008.026-.023.05-.044.071-.025.017-.057.026-.089.025h-.319l1.208-2.634h.42l1.222 2.624zm-2-.978h1.14l-.483-1.072c-.036-.081-.066-.164-.089-.248-.017.05-.031.098-.046.14l-.044.11-.478 1.07zm4.083.72c.076.003.151.003.227 0 .065-.006.13-.016.193-.031.059-.013.117-.029.174-.048.053-.019.106-.042.162-.065v-.592h-.483c-.012.001-.024-.001-.035-.005s-.021-.009-.03-.016c-.008-.006-.014-.013-.018-.022s-.006-.017-.006-.026v-.202h.937v1.01c-.077.047-.157.089-.242.125-.086.037-.176.067-.268.09-.099.025-.2.043-.302.054-.117.011-.235.017-.353.017-.208.002-.415-.032-.609-.098-.181-.063-.345-.156-.483-.275-.134-.12-.24-.262-.312-.417-.076-.175-.114-.36-.111-.547-.003-.188.034-.374.109-.551.069-.156.176-.298.312-.417.138-.119.302-.212.483-.273.207-.067.426-.1.647-.098.112 0 .225.008.336.023.098.014.195.036.288.067.084.027.165.062.242.104.074.041.144.087.21.138l-.116.163c-.009.015-.023.027-.039.036s-.036.014-.055.014c-.027-.001-.053-.008-.075-.021-.036-.017-.075-.038-.118-.063-.051-.028-.106-.052-.162-.071-.072-.025-.146-.044-.222-.058-.101-.016-.204-.024-.307-.023-.159-.002-.318.023-.466.073-.134.047-.256.118-.355.209-.1.095-.177.206-.225.328-.108.285-.108.593 0 .878.053.124.135.237.242.332.099.09.219.162.353.209.154.046.316.063.478.052zm3.85-.042h1.319v.3h-1.722v-2.634h.413l-.01 2.334zm2.692.3h-.413v-2.634h.413v2.634zm1.536-2.622c.025.012.046.028.063.048l1.766 1.986a.73708.73708 0 0 1 0-.094v-1.962h.36v2.645h-.208c-.031.002-.062-.003-.089-.015a.23017.23017 0 0 1-.065-.05l-1.764-1.984v2.048h-.345v-2.634h.215c.023 0 .046.004.068.012zm5.23-.012v.29h-1.464v.87h1.186v.279h-1.186v.899h1.464v.29h-1.889v-2.628h1.889zM10.782 1.888l18.343 4.497v15.757l-18.343-4.494V1.889zM9.605.545v17.867l20.694 5.074V5.621L9.605.545z"/>
      <path d="M20.696 31.781 0 26.702V8.836l20.696 5.076V31.78z"/>
      <path d="m9.948 1.686 18.104 4.44-7.699 6.649L2.247 8.333l7.702-6.647zM9.605.545 0 8.837l20.696 5.076 9.603-8.292L9.605.545zm12.256 30.231 8.438-7.287-8.438-2.071v9.358z"/>
    </symbol>
    <symbol id="icon-diagram" viewBox="0 0 32 32">
      <path fill="#2196f3" style="fill:var(--color1, #2196f3)" d="M14.926 14.965h1.066v4.798h-1.066v-4.797zm4.264 2.132h1.066v2.665H19.19v-2.665zm-8.529 1.599h1.066v1.066h-1.066v-1.066zm-3.198-.533h1.066v1.599H7.463v-1.599z"/>
      <path fill="#212121" style="fill:var(--color2, #212121)" d="M1.599 28.291h25.587c.883 0 1.599-.716 1.599-1.599V24.56c0-.883-.716-1.599-1.599-1.599h-.533V9.668L29.681 6.8c.703.346 1.553.136 2.013-.499s.396-1.508-.152-2.068-1.42-.644-2.065-.198c-.644.446-.873 1.292-.542 2.002L26.654 8.2V6.97c0-.883-.716-1.599-1.599-1.599H3.733c-.883 0-1.599.716-1.599 1.599v15.992h-.533c-.883 0-1.599.716-1.599 1.599v2.132c0 .883.716 1.599 1.599 1.599zM30.384 4.837c.294 0 .533.239.533.533s-.239.533-.533.533c-.294 0-.533-.239-.533-.533s.239-.533.533-.533zM3.198 6.969c0-.294.239-.533.533-.533h21.322c.294 0 .533.239.533.533v2.239l-1.066 1.013V8.035c0-.294-.239-.533-.533-.533H4.797c-.294 0-.533.239-.533.533v13.326c0 .294.239.533.533.533h19.19c.294 0 .533-.239.533-.533v-9.674l1.066-1.01v12.284H3.198V6.969zm4.798 6.93c-.721-.002-1.354.478-1.546 1.174s.105 1.433.725 1.801c.62.368 1.41.276 1.928-.226l1.853.93c.215.108.476.057.636-.123l3.939-4.431 3.872 2.901c.208.156.498.139.686-.039l3.365-3.188v8.131H5.33V8.569h18.124v2.66l-3.771 3.572-3.904-2.927c-.222-.166-.534-.135-.718.072l-3.993 4.493-1.493-.746c.011-.064.018-.129.02-.193 0-.883-.716-1.599-1.599-1.599zm.533 1.599c0 .294-.239.533-.533.533s-.533-.239-.533-.533c0-.294.239-.533.533-.533s.533.239.533.533zm3.198 8.529h5.331v.533c0 .294-.239.533-.533.533h-4.264c-.294 0-.533-.239-.533-.533v-.533zm-10.661.533c0-.294.239-.533.533-.533h9.062v.533c0 .883.716 1.599 1.599 1.599h4.264c.883 0 1.599-.716 1.599-1.599v-.533h9.062c.294 0 .533.239.533.533v2.132c0 .294-.239.533-.533.533H1.598c-.294 0-.533-.239-.533-.533V24.56z"/>
    </symbol>
    <symbol id="icon-envelope" viewBox="0 0 43 32">
      <path d="M38.667 0H4C1.794 0 0 1.794 0 4v24c0 2.206 1.794 4 4 4h34.667c2.206 0 4-1.794 4-4V4c0-2.206-1.794-4-4-4zm0 2.667c.181 0 .353.038.511.103L21.334 18.236 3.49 2.77c.158-.066.33-.103.511-.103h34.667zm0 26.666H4c-.736 0-1.333-.598-1.333-1.333V5.587L20.46 21.008c.251.217.563.326.874.326s.622-.108.874-.326L40.001 5.587V28c0 .736-.598 1.333-1.333 1.333z"/>
    </symbol>
    <symbol id="icon-facebook" viewBox="0 0 32 32">
      <path d="M21.329 5.313h2.921V.225C23.746.156 22.013 0 19.994 0c-4.212 0-7.097 2.649-7.097 7.519V12H8.249v5.688h4.648V32h5.699V17.689h4.46l.708-5.688h-5.169V8.082c.001-1.644.444-2.769 2.735-2.769z"/>
    </symbol>
    <symbol id="icon-instagram" viewBox="0 0 32 32">
      <path d="M31.969 9.408c-.075-1.7-.35-2.869-.744-3.882-.406-1.075-1.032-2.038-1.851-2.838-.8-.813-1.769-1.444-2.832-1.844C25.523.45 24.36.175 22.66.1 20.947.019 20.403 0 16.059 0s-4.888.019-6.595.094c-1.7.075-2.869.35-3.882.744-1.075.406-2.038 1.031-2.838 1.85C1.931 3.488 1.3 4.457.9 5.52.506 6.539.231 7.702.156 9.402c-.081 1.713-.1 2.257-.1 6.601s.019 4.888.094 6.595c.075 1.7.35 2.869.744 3.882.406 1.075 1.038 2.038 1.85 2.838.8.813 1.769 1.444 2.832 1.844 1.019.394 2.182.669 3.882.744 1.706.075 2.25.094 6.595.094s4.888-.019 6.595-.094c1.7-.075 2.869-.35 3.882-.744 2.151-.832 3.851-2.532 4.682-4.682.394-1.019.669-2.182.744-3.882.075-1.707.094-2.251.094-6.595s-.006-4.888-.081-6.595zm-2.882 13.065c-.069 1.563-.331 2.407-.55 2.969-.538 1.394-1.644 2.5-3.038 3.038-.563.219-1.413.481-2.969.55-1.688.075-2.194.094-6.464.094s-4.782-.019-6.464-.094c-1.563-.069-2.407-.331-2.969-.55-.694-.256-1.325-.663-1.838-1.194-.531-.519-.938-1.144-1.194-1.838-.219-.563-.481-1.413-.55-2.969-.075-1.688-.094-2.194-.094-6.464s.019-4.782.094-6.464c.069-1.563.331-2.407.55-2.969.256-.694.663-1.325 1.2-1.838.519-.531 1.144-.938 1.838-1.194.563-.219 1.413-.481 2.969-.55 1.688-.075 2.194-.094 6.464-.094 4.276 0 4.782.019 6.464.094 1.563.069 2.407.331 2.969.55.694.256 1.325.662 1.838 1.194.531.519.938 1.144 1.194 1.838.219.563.481 1.413.55 2.969.075 1.688.094 2.194.094 6.464s-.019 4.77-.094 6.458z"/>
      <path d="M16.059 7.783c-4.538 0-8.22 3.682-8.22 8.22s3.682 8.22 8.22 8.22c4.539 0 8.22-3.682 8.22-8.22s-3.682-8.22-8.22-8.22zm0 13.552c-2.944 0-5.332-2.388-5.332-5.332s2.388-5.332 5.332-5.332 5.332 2.388 5.332 5.332-2.388 5.332-5.332 5.332zM26.524 7.458c0 1.06-.859 1.919-1.919 1.919s-1.919-.859-1.919-1.919.859-1.919 1.919-1.919 1.919.859 1.919 1.919z"/>
    </symbol>
    <symbol id="icon-linkedin" viewBox="0 0 32 32">
      <path d="M31.992 32v-.001H32V20.263c0-5.741-1.236-10.164-7.948-10.164-3.227 0-5.392 1.771-6.276 3.449h-.093v-2.913h-6.364v21.364h6.627V21.42c0-2.785.528-5.479 3.977-5.479 3.399 0 3.449 3.179 3.449 5.657v10.401h6.62zM.528 10.636h6.635V32H.528V10.636zM3.843 0C1.722 0 0 1.721 0 3.843s1.721 3.879 3.843 3.879c2.121 0 3.843-1.757 3.843-3.879C7.685 1.722 5.963 0 3.843 0z"/>
    </symbol>
    <symbol id="icon-mobile" viewBox="0 0 20 32">
      <path d="M17 0H3C1.346 0 0 1.346 0 3v26c0 1.654 1.346 3 3 3h14c1.654 0 3-1.346 3-3V3c0-1.654-1.346-3-3-3zM3 2h14c.552 0 1 .448 1 1v21H2V3c0-.552.448-1 1-1zm14 28H3c-.552 0-1-.448-1-1v-3h16v3c0 .552-.448 1-1 1z"/>
    </symbol>
    <symbol id="icon-radar" viewBox="0 0 32 32">
      <path fill="#212121" style="fill:var(--color2, #212121)" d="m30.773 22.098-8.443-8.505.937-4.615c.242.094.499.144.758.146h.006c1.192.014 2.17-.941 2.184-2.133s-.941-2.17-2.133-2.184c-1.192-.014-2.17.941-2.184 2.133-.003.255.039.509.125.749l-4.96.605L8.972.161a.53404.53404 0 0 0-.377-.16c-.14.001-.274.056-.373.155L6.709 1.66c-.208.208-.208.546 0 .754l.814.826C4.37 9.038 5.394 16.218 10.042 20.903c.043.041.092.074.146.098-.034.18-.051.364-.052.547v6.187h-6.4c-1.472.002-2.665 1.195-2.667 2.667v1.067c0 .295.239.533.533.533h24.533c.295 0 .533-.239.533-.533v-1.067c-.002-1.472-1.195-2.665-2.667-2.667h-6.4v-2.742c1.003.21 2.024.317 3.049.32 2.458-.003 4.877-.615 7.04-1.783l.818.823c.099.101.235.159.377.16.14-.001.274-.056.373-.155l1.513-1.504c.208-.208.208-.546 0-.754zM23.28 6.233c.418-.415 1.093-.414 1.508.004s.414 1.093-.004 1.508c-.2.199-.47.31-.752.31h-.003c-.589-.003-1.064-.483-1.061-1.072.002-.282.115-.552.314-.751h-.002zm-1.256 3.505-.598 2.946-1.175-1.182 1.774-1.763zm-.605-.902-1.92 1.909-1.485-1.493 3.405-.415zM24.004 28.8c.884 0 1.6.716 1.6 1.6v.533H2.137V30.4c0-.884.716-1.6 1.6-1.6h20.267zm-7.467-2.133v1.067h-5.333v-1.067h5.333zM11.204 25.6v-4.053c0-1.294 1.196-2.347 2.667-2.347s2.667 1.053 2.667 2.347V25.6h-5.333zm6.4-1.696v-2.357c0-1.882-1.675-3.413-3.733-3.413-1.331-.02-2.576.657-3.281 1.786C6.532 15.646 5.619 9.275 8.311 4.033l18.602 18.708c-2.872 1.461-6.165 1.873-9.309 1.163zm11.289-.684L7.836 2.039l.755-.752 7.935 7.98c.004 0 .006.007.01.01l13.115 13.191-.757.752z"/>
      <path fill="#2196f3" style="fill:var(--color1, #2196f3)" d="M13.876 20.267h-.005c-.884-.001-1.601.714-1.602 1.598s.714 1.601 1.598 1.602h.005c.884.001 1.601-.714 1.602-1.598s-.714-1.601-1.598-1.602zm.373 1.978c-.1.1-.236.156-.378.155-.295-.002-.532-.242-.531-.536.001-.141.057-.276.157-.375s.233-.154.373-.155c.295.002.532.241.53.536-.001.141-.057.276-.157.375h.005z"/>
    </symbol>
    <symbol id="icon-twitter" viewBox="0 0 32 32">
      <path d="M32 6.078c-1.19.522-2.458.868-3.78 1.036 1.36-.812 2.398-2.088 2.886-3.626-1.268.756-2.668 1.29-4.16 1.588C25.742 3.794 24.026 3 22.154 3c-3.632 0-6.556 2.948-6.556 6.562 0 .52.044 1.02.152 1.496-5.454-.266-10.28-2.88-13.522-6.862-.566.982-.898 2.106-.898 3.316 0 2.272 1.17 4.286 2.914 5.452-1.054-.02-2.088-.326-2.964-.808v.072c0 3.188 2.274 5.836 5.256 6.446-.534.146-1.116.216-1.72.216-.42 0-.844-.024-1.242-.112.85 2.598 3.262 4.508 6.13 4.57-2.232 1.746-5.066 2.798-8.134 2.798-.538 0-1.054-.024-1.57-.09C2.906 27.93 6.35 29 10.064 29c12.072 0 18.672-10 18.672-18.668 0-.29-.01-.57-.024-.848C30.014 8.56 31.108 7.406 32 6.078z"/>
    </symbol>
  </defs>
</svg>
